<svg width="1237" height="1244" viewBox="0 0 1237 1244" fill="none" xmlns="http://www.w3.org/2000/svg">
<path d="M618.5 15C951.724 15 1222 286.683 1222 622C1222 957.317 951.724 1229 618.5 1229C285.276 1229 15 957.317 15 622C15 286.683 285.276 15 618.5 15Z" fill="white" stroke="#FFD100" stroke-width="30"/>
<path d="M615.5 46C931.627 46 1188 303.827 1188 622C1188 940.173 931.627 1198 615.5 1198C299.373 1198 43 940.173 43 622C43 303.827 299.373 46 615.5 46Z" fill="url(#paint0_radial_71_1406)" stroke="black" stroke-width="20"/>
<path d="M458.615 568.056H391.794V547.548C391.794 537.978 390.939 531.882 389.23 529.262C387.521 526.641 384.673 525.331 380.686 525.331C376.356 525.331 373.052 527.097 370.773 530.629C368.609 534.161 367.526 539.516 367.526 546.693C367.526 555.922 368.78 562.872 371.286 567.543C373.679 572.214 380.458 577.854 391.623 584.462C423.638 603.489 443.804 619.097 452.121 631.288C460.438 643.479 464.597 663.132 464.597 690.248C464.597 709.958 462.261 724.485 457.59 733.827C453.033 743.17 444.146 751.031 430.93 757.411C417.714 763.677 402.333 766.811 384.787 766.811C365.533 766.811 349.069 763.165 335.397 755.873C321.84 748.581 312.953 739.296 308.737 728.017C304.522 716.737 302.414 700.73 302.414 679.994V661.879H369.235V695.546C369.235 705.914 370.147 712.579 371.97 715.541C373.907 718.503 377.268 719.984 382.053 719.984C386.838 719.984 390.37 718.104 392.648 714.345C395.041 710.585 396.237 705.002 396.237 697.597C396.237 681.304 394.016 670.652 389.572 665.639C385.015 660.626 373.793 652.252 355.905 640.517C338.018 628.668 326.169 620.066 320.358 614.711C314.548 609.356 309.706 601.951 305.832 592.494C302.072 583.038 300.192 570.961 300.192 556.264C300.192 535.072 302.87 519.577 308.225 509.779C313.693 499.981 322.466 492.348 334.543 486.879C346.62 481.296 361.203 478.505 378.293 478.505C396.978 478.505 412.871 481.524 425.974 487.562C439.19 493.601 447.906 501.234 452.121 510.463C456.451 519.577 458.615 535.129 458.615 557.118V568.056ZM487.326 484.315H559.787C579.383 484.315 594.423 485.854 604.904 488.93C615.5 492.006 623.418 496.449 628.659 502.26C634.014 508.07 637.603 515.134 639.426 523.451C641.363 531.654 642.331 544.415 642.331 561.732V585.829C642.331 603.489 640.508 616.363 636.862 624.452C633.216 632.541 626.494 638.751 616.696 643.08C607.012 647.41 594.309 649.574 578.586 649.574H559.274V761H487.326V484.315ZM559.274 531.654V602.064C561.325 602.178 563.091 602.235 564.572 602.235C571.18 602.235 575.738 600.64 578.244 597.45C580.865 594.146 582.175 587.367 582.175 577.113V554.384C582.175 544.927 580.694 538.775 577.731 535.927C574.769 533.078 568.617 531.654 559.274 531.654ZM734.958 484.315V761H663.01V484.315H734.958ZM924.484 484.315V761H861.423L823.996 635.219V761H763.84V484.315H823.996L864.328 608.9V484.315H924.484Z" fill="white"/>
<defs>
<radialGradient id="paint0_radial_71_1406" cx="0" cy="0" r="1" gradientUnits="userSpaceOnUse" gradientTransform="translate(615.5 622) rotate(90) scale(586 582.5)">
<stop offset="0.658654" stop-color="#01AF01"/>
<stop offset="0.961538" stop-color="white"/>
</radialGradient>
</defs>
</svg>
